<mxGraphModel dx="1066" dy="676" grid="1" gridSize="10" guides="1" tooltips="1" connect="1" arrows="1" fold="1" page="1" pageScale="1" pageWidth="650" pageHeight="1654" math="0" shadow="0">
  <root>
    <mxCell id="0"/>
    <mxCell id="1" parent="0"/>
    <mxCell id="tXKy9SH-aUvWyKXNc3tE-34" value="&lt;font style=&quot;font-size: 14px;&quot;&gt;sycl.cpp&lt;/font&gt;" style="strokeWidth=1;html=1;shape=mxgraph.flowchart.delay;whiteSpace=wrap;direction=west;fontFamily=Times New Roman;fontSize=14;" vertex="1" parent="1">
      <mxGeometry y="160" width="50" height="40" as="geometry"/>
    </mxCell>
    <mxCell id="tXKy9SH-aUvWyKXNc3tE-35" value="Компилятор SYCL" style="rounded=0;whiteSpace=wrap;html=1;fontFamily=Times New Roman;fontSize=14;fillColor=#fff2cc;strokeColor=#d6b656;" vertex="1" parent="1">
      <mxGeometry x="67.38" y="160" width="82.62" height="40" as="geometry"/>
    </mxCell>
    <mxCell id="tXKy9SH-aUvWyKXNc3tE-36" value="Компилятор&lt;br style=&quot;font-size: 14px;&quot;&gt;хоста" style="rounded=0;whiteSpace=wrap;html=1;fontFamily=Times New Roman;fontSize=14;fillColor=#fff2cc;strokeColor=#d6b656;" vertex="1" parent="1">
      <mxGeometry x="160" y="80" width="80" height="40" as="geometry"/>
    </mxCell>
    <mxCell id="tXKy9SH-aUvWyKXNc3tE-37" value="Ассемблер" style="rounded=0;whiteSpace=wrap;html=1;fontFamily=Times New Roman;fontSize=14;fillColor=#fff2cc;strokeColor=#d6b656;" vertex="1" parent="1">
      <mxGeometry x="270" y="80" width="70" height="40" as="geometry"/>
    </mxCell>
    <mxCell id="tXKy9SH-aUvWyKXNc3tE-38" value="Компоновщик" style="rounded=0;whiteSpace=wrap;html=1;fontFamily=Times New Roman;fontSize=14;fillColor=#fff2cc;strokeColor=#d6b656;" vertex="1" parent="1">
      <mxGeometry x="370" y="80" width="85.55" height="40" as="geometry"/>
    </mxCell>
    <mxCell id="tXKy9SH-aUvWyKXNc3tE-39" value="Общий компоновщик" style="rounded=0;whiteSpace=wrap;html=1;fontFamily=Times New Roman;fontSize=14;fillColor=#dae8fc;strokeColor=#6c8ebf;" vertex="1" parent="1">
      <mxGeometry x="465" y="240" width="93.3" height="60" as="geometry"/>
    </mxCell>
    <mxCell id="tXKy9SH-aUvWyKXNc3tE-40" value="Код хоста&lt;br style=&quot;font-size: 14px;&quot;&gt;API вызовы&lt;br style=&quot;font-size: 14px;&quot;&gt;Код девайса" style="strokeWidth=1;html=1;shape=mxgraph.flowchart.delay;whiteSpace=wrap;fontFamily=Times New Roman;fontSize=14;fillColor=#dae8fc;strokeColor=#6c8ebf;" vertex="1" parent="1">
      <mxGeometry x="570" y="240" width="80" height="60" as="geometry"/>
    </mxCell>
    <mxCell id="tXKy9SH-aUvWyKXNc3tE-41" value="Компилятор&lt;br style=&quot;font-size: 14px;&quot;&gt;девайса" style="rounded=0;whiteSpace=wrap;html=1;fontFamily=Times New Roman;fontSize=14;fillColor=#dae8fc;strokeColor=#6c8ebf;" vertex="1" parent="1">
      <mxGeometry x="177.7" y="250" width="80" height="40" as="geometry"/>
    </mxCell>
    <mxCell id="tXKy9SH-aUvWyKXNc3tE-44" value="host.s" style="shape=hexagon;perimeter=hexagonPerimeter2;whiteSpace=wrap;html=1;fixedSize=1;fontFamily=Times New Roman;fontSize=14;strokeColor=#000000;strokeWidth=1;" vertex="1" parent="1">
      <mxGeometry x="212.7" y="20" width="80" height="25" as="geometry"/>
    </mxCell>
    <mxCell id="tXKy9SH-aUvWyKXNc3tE-45" value="host.cpp" style="shape=hexagon;perimeter=hexagonPerimeter2;whiteSpace=wrap;html=1;fixedSize=1;fontFamily=Times New Roman;fontSize=14;strokeColor=#000000;strokeWidth=1;" vertex="1" parent="1">
      <mxGeometry x="68.69" y="87.5" width="80" height="25" as="geometry"/>
    </mxCell>
    <mxCell id="tXKy9SH-aUvWyKXNc3tE-46" value="host.o" style="shape=hexagon;perimeter=hexagonPerimeter2;whiteSpace=wrap;html=1;fixedSize=1;fontFamily=Times New Roman;fontSize=14;strokeColor=#000000;strokeWidth=1;" vertex="1" parent="1">
      <mxGeometry x="312" y="20" width="80" height="25" as="geometry"/>
    </mxCell>
    <mxCell id="tXKy9SH-aUvWyKXNc3tE-47" value="host.o" style="shape=hexagon;perimeter=hexagonPerimeter2;whiteSpace=wrap;html=1;fixedSize=1;fontFamily=Times New Roman;fontSize=14;strokeColor=#000000;strokeWidth=1;" vertex="1" parent="1">
      <mxGeometry x="471.65000000000003" y="87.5" width="80" height="25" as="geometry"/>
    </mxCell>
    <mxCell id="tXKy9SH-aUvWyKXNc3tE-48" value="Дизассемблер" style="rounded=0;whiteSpace=wrap;html=1;fontFamily=Times New Roman;fontSize=14;fillColor=#fff2cc;strokeColor=#d6b656;" vertex="1" parent="1">
      <mxGeometry x="270" y="160" width="100" height="40" as="geometry"/>
    </mxCell>
    <mxCell id="tXKy9SH-aUvWyKXNc3tE-49" value="" style="endArrow=classic;html=1;fontSize=14;exitX=0;exitY=0.5;exitDx=0;exitDy=0;exitPerimeter=0;entryX=0;entryY=0.5;entryDx=0;entryDy=0;strokeWidth=2;" edge="1" parent="1" source="tXKy9SH-aUvWyKXNc3tE-34" target="tXKy9SH-aUvWyKXNc3tE-35">
      <mxGeometry width="50" height="50" relative="1" as="geometry">
        <mxPoint x="180" y="40" as="sourcePoint"/>
        <mxPoint x="230" y="-10" as="targetPoint"/>
      </mxGeometry>
    </mxCell>
    <mxCell id="tXKy9SH-aUvWyKXNc3tE-50" value="" style="endArrow=classic;html=1;fontSize=14;strokeWidth=2;exitX=0.5;exitY=0;exitDx=0;exitDy=0;entryX=0.5;entryY=1;entryDx=0;entryDy=0;" edge="1" parent="1" source="tXKy9SH-aUvWyKXNc3tE-35" target="tXKy9SH-aUvWyKXNc3tE-45">
      <mxGeometry width="50" height="50" relative="1" as="geometry">
        <mxPoint x="180" y="40" as="sourcePoint"/>
        <mxPoint x="230" y="-10" as="targetPoint"/>
      </mxGeometry>
    </mxCell>
    <mxCell id="tXKy9SH-aUvWyKXNc3tE-51" value="device.spv" style="shape=hexagon;perimeter=hexagonPerimeter2;whiteSpace=wrap;html=1;fixedSize=1;fontFamily=Times New Roman;fontSize=14;strokeWidth=1;strokeColor=#007FFF;" vertex="1" parent="1">
      <mxGeometry x="292.7" y="257.5" width="80" height="25" as="geometry"/>
    </mxCell>
    <mxCell id="tXKy9SH-aUvWyKXNc3tE-52" value="device.cpp" style="shape=hexagon;perimeter=hexagonPerimeter2;whiteSpace=wrap;html=1;fixedSize=1;fontFamily=Times New Roman;fontSize=14;strokeWidth=1;strokeColor=#007FFF;" vertex="1" parent="1">
      <mxGeometry x="68.69" y="257.5" width="80" height="25" as="geometry"/>
    </mxCell>
    <mxCell id="tXKy9SH-aUvWyKXNc3tE-53" value="" style="endArrow=classic;html=1;fontSize=14;strokeWidth=2;exitX=1;exitY=0.5;exitDx=0;exitDy=0;entryX=0;entryY=0.5;entryDx=0;entryDy=0;jumpSize=6;startSize=5;endSize=3;" edge="1" parent="1" source="tXKy9SH-aUvWyKXNc3tE-45" target="tXKy9SH-aUvWyKXNc3tE-36">
      <mxGeometry width="50" height="50" relative="1" as="geometry">
        <mxPoint x="130" as="sourcePoint"/>
        <mxPoint x="180" y="-50" as="targetPoint"/>
      </mxGeometry>
    </mxCell>
    <mxCell id="tXKy9SH-aUvWyKXNc3tE-58" value="" style="ellipse;whiteSpace=wrap;html=1;aspect=fixed;fontSize=14;" vertex="1" parent="1">
      <mxGeometry x="247.7" y="95" width="10" height="10" as="geometry"/>
    </mxCell>
    <mxCell id="tXKy9SH-aUvWyKXNc3tE-59" value="" style="ellipse;whiteSpace=wrap;html=1;aspect=fixed;fontSize=14;" vertex="1" parent="1">
      <mxGeometry x="347" y="95" width="10" height="10" as="geometry"/>
    </mxCell>
    <mxCell id="tXKy9SH-aUvWyKXNc3tE-60" value="" style="endArrow=none;html=1;fontSize=14;startSize=5;endSize=3;strokeWidth=1;exitX=0.5;exitY=0;exitDx=0;exitDy=0;entryX=0.5;entryY=1;entryDx=0;entryDy=0;" edge="1" parent="1" source="tXKy9SH-aUvWyKXNc3tE-58" target="tXKy9SH-aUvWyKXNc3tE-44">
      <mxGeometry width="50" height="50" relative="1" as="geometry">
        <mxPoint x="290" y="140" as="sourcePoint"/>
        <mxPoint x="340" y="90" as="targetPoint"/>
      </mxGeometry>
    </mxCell>
    <mxCell id="tXKy9SH-aUvWyKXNc3tE-61" value="" style="endArrow=none;html=1;fontSize=14;startSize=5;endSize=3;strokeWidth=1;entryX=0.5;entryY=1;entryDx=0;entryDy=0;exitX=0.5;exitY=0;exitDx=0;exitDy=0;" edge="1" parent="1" source="tXKy9SH-aUvWyKXNc3tE-59" target="tXKy9SH-aUvWyKXNc3tE-46">
      <mxGeometry width="50" height="50" relative="1" as="geometry">
        <mxPoint x="290" y="140" as="sourcePoint"/>
        <mxPoint x="340" y="90" as="targetPoint"/>
      </mxGeometry>
    </mxCell>
    <mxCell id="tXKy9SH-aUvWyKXNc3tE-62" value="" style="endArrow=classic;html=1;fontSize=14;startSize=5;endSize=3;strokeWidth=2;entryX=0;entryY=0.5;entryDx=0;entryDy=0;exitX=0.965;exitY=0.498;exitDx=0;exitDy=0;exitPerimeter=0;" edge="1" parent="1" source="tXKy9SH-aUvWyKXNc3tE-58" target="tXKy9SH-aUvWyKXNc3tE-37">
      <mxGeometry width="50" height="50" relative="1" as="geometry">
        <mxPoint x="260" y="100" as="sourcePoint"/>
        <mxPoint x="340" y="90" as="targetPoint"/>
      </mxGeometry>
    </mxCell>
    <mxCell id="tXKy9SH-aUvWyKXNc3tE-63" value="" style="endArrow=none;html=1;fontSize=14;startSize=5;endSize=3;strokeWidth=2;exitX=1;exitY=0.5;exitDx=0;exitDy=0;entryX=0;entryY=0.5;entryDx=0;entryDy=0;" edge="1" parent="1" source="tXKy9SH-aUvWyKXNc3tE-36" target="tXKy9SH-aUvWyKXNc3tE-58">
      <mxGeometry width="50" height="50" relative="1" as="geometry">
        <mxPoint x="260" y="130" as="sourcePoint"/>
        <mxPoint x="310" y="80" as="targetPoint"/>
      </mxGeometry>
    </mxCell>
    <mxCell id="tXKy9SH-aUvWyKXNc3tE-64" value="" style="endArrow=none;html=1;fontSize=14;startSize=5;endSize=3;strokeWidth=2;exitX=1;exitY=0.5;exitDx=0;exitDy=0;entryX=0;entryY=0.5;entryDx=0;entryDy=0;" edge="1" parent="1" source="tXKy9SH-aUvWyKXNc3tE-37" target="tXKy9SH-aUvWyKXNc3tE-59">
      <mxGeometry width="50" height="50" relative="1" as="geometry">
        <mxPoint x="260" y="130" as="sourcePoint"/>
        <mxPoint x="310" y="80" as="targetPoint"/>
      </mxGeometry>
    </mxCell>
    <mxCell id="tXKy9SH-aUvWyKXNc3tE-65" value="" style="endArrow=classic;html=1;fontSize=14;startSize=5;endSize=3;strokeWidth=2;exitX=1;exitY=0.5;exitDx=0;exitDy=0;entryX=0;entryY=0.5;entryDx=0;entryDy=0;" edge="1" parent="1" source="tXKy9SH-aUvWyKXNc3tE-59" target="tXKy9SH-aUvWyKXNc3tE-38">
      <mxGeometry width="50" height="50" relative="1" as="geometry">
        <mxPoint x="260" y="130" as="sourcePoint"/>
        <mxPoint x="310" y="80" as="targetPoint"/>
      </mxGeometry>
    </mxCell>
    <mxCell id="tXKy9SH-aUvWyKXNc3tE-66" value="" style="endArrow=classic;html=1;fontSize=14;startSize=5;endSize=3;strokeWidth=2;exitX=1;exitY=0.5;exitDx=0;exitDy=0;entryX=0;entryY=0.5;entryDx=0;entryDy=0;" edge="1" parent="1" source="tXKy9SH-aUvWyKXNc3tE-38" target="tXKy9SH-aUvWyKXNc3tE-47">
      <mxGeometry width="50" height="50" relative="1" as="geometry">
        <mxPoint x="370" y="110" as="sourcePoint"/>
        <mxPoint x="420" y="60" as="targetPoint"/>
      </mxGeometry>
    </mxCell>
    <mxCell id="tXKy9SH-aUvWyKXNc3tE-67" value="" style="endArrow=classic;html=1;fontSize=14;startSize=5;endSize=3;strokeWidth=2;exitX=0.5;exitY=1;exitDx=0;exitDy=0;entryX=0.5;entryY=0;entryDx=0;entryDy=0;" edge="1" parent="1" source="tXKy9SH-aUvWyKXNc3tE-47" target="tXKy9SH-aUvWyKXNc3tE-39">
      <mxGeometry width="50" height="50" relative="1" as="geometry">
        <mxPoint x="370" y="90" as="sourcePoint"/>
        <mxPoint x="420" y="40" as="targetPoint"/>
      </mxGeometry>
    </mxCell>
    <mxCell id="tXKy9SH-aUvWyKXNc3tE-68" value="" style="endArrow=classic;html=1;fontSize=14;startSize=5;endSize=3;strokeWidth=2;exitX=0.3;exitY=1.029;exitDx=0;exitDy=0;exitPerimeter=0;entryX=1;entryY=0.5;entryDx=0;entryDy=0;" edge="1" parent="1" source="tXKy9SH-aUvWyKXNc3tE-47" target="tXKy9SH-aUvWyKXNc3tE-48">
      <mxGeometry width="50" height="50" relative="1" as="geometry">
        <mxPoint x="370" y="210" as="sourcePoint"/>
        <mxPoint x="420" y="160" as="targetPoint"/>
        <Array as="points">
          <mxPoint x="496" y="180"/>
        </Array>
      </mxGeometry>
    </mxCell>
    <mxCell id="tXKy9SH-aUvWyKXNc3tE-69" value="" style="endArrow=classic;html=1;fontSize=14;startSize=5;endSize=3;strokeWidth=2;entryX=0;entryY=0.75;entryDx=0;entryDy=0;exitX=0;exitY=0.5;exitDx=0;exitDy=0;" edge="1" parent="1" source="tXKy9SH-aUvWyKXNc3tE-48" target="tXKy9SH-aUvWyKXNc3tE-37">
      <mxGeometry width="50" height="50" relative="1" as="geometry">
        <mxPoint x="370" y="210" as="sourcePoint"/>
        <mxPoint x="420" y="160" as="targetPoint"/>
        <Array as="points">
          <mxPoint x="253" y="180"/>
          <mxPoint x="253" y="110"/>
        </Array>
      </mxGeometry>
    </mxCell>
    <mxCell id="tXKy9SH-aUvWyKXNc3tE-70" value="" style="endArrow=classic;html=1;fontSize=14;startSize=5;endSize=3;strokeWidth=2;exitX=0.5;exitY=1;exitDx=0;exitDy=0;strokeColor=#007FFF;" edge="1" parent="1" source="tXKy9SH-aUvWyKXNc3tE-35">
      <mxGeometry width="50" height="50" relative="1" as="geometry">
        <mxPoint x="370" y="200" as="sourcePoint"/>
        <mxPoint x="109" y="260" as="targetPoint"/>
      </mxGeometry>
    </mxCell>
    <mxCell id="tXKy9SH-aUvWyKXNc3tE-71" value="" style="endArrow=classic;html=1;fontSize=14;startSize=5;endSize=3;strokeWidth=2;exitX=1;exitY=0.5;exitDx=0;exitDy=0;entryX=0;entryY=0.5;entryDx=0;entryDy=0;strokeColor=#007FFF;" edge="1" parent="1" source="tXKy9SH-aUvWyKXNc3tE-52" target="tXKy9SH-aUvWyKXNc3tE-41">
      <mxGeometry width="50" height="50" relative="1" as="geometry">
        <mxPoint x="370" y="200" as="sourcePoint"/>
        <mxPoint x="420" y="150" as="targetPoint"/>
      </mxGeometry>
    </mxCell>
    <mxCell id="tXKy9SH-aUvWyKXNc3tE-72" value="" style="endArrow=classic;html=1;fontSize=14;startSize=5;endSize=3;strokeWidth=2;exitX=1;exitY=0.5;exitDx=0;exitDy=0;entryX=0;entryY=0.5;entryDx=0;entryDy=0;strokeColor=#007FFF;" edge="1" parent="1" source="tXKy9SH-aUvWyKXNc3tE-41" target="tXKy9SH-aUvWyKXNc3tE-51">
      <mxGeometry width="50" height="50" relative="1" as="geometry">
        <mxPoint x="370" y="200" as="sourcePoint"/>
        <mxPoint x="420" y="150" as="targetPoint"/>
      </mxGeometry>
    </mxCell>
    <mxCell id="tXKy9SH-aUvWyKXNc3tE-73" value="" style="endArrow=classic;html=1;fontSize=14;startSize=5;endSize=3;strokeWidth=2;exitX=1;exitY=0.5;exitDx=0;exitDy=0;entryX=0;entryY=0.5;entryDx=0;entryDy=0;strokeColor=#007FFF;" edge="1" parent="1" source="tXKy9SH-aUvWyKXNc3tE-51" target="tXKy9SH-aUvWyKXNc3tE-39">
      <mxGeometry width="50" height="50" relative="1" as="geometry">
        <mxPoint x="370" y="200" as="sourcePoint"/>
        <mxPoint x="420" y="150" as="targetPoint"/>
      </mxGeometry>
    </mxCell>
    <mxCell id="tXKy9SH-aUvWyKXNc3tE-74" value="" style="endArrow=classic;html=1;fontSize=14;startSize=5;endSize=3;strokeWidth=2;exitX=1;exitY=0.5;exitDx=0;exitDy=0;" edge="1" parent="1" source="tXKy9SH-aUvWyKXNc3tE-39" target="tXKy9SH-aUvWyKXNc3tE-40">
      <mxGeometry width="50" height="50" relative="1" as="geometry">
        <mxPoint x="330" y="200" as="sourcePoint"/>
        <mxPoint x="380" y="150" as="targetPoint"/>
      </mxGeometry>
    </mxCell>
  </root>
</mxGraphModel>
